<svg width="12" height="12" viewBox="0 0 12 12" fill="none" xmlns="http://www.w3.org/2000/svg">
<path d="M11.9701 4.18392C11.8952 3.94995 11.691 3.7843 11.4504 3.76217L8.16869 3.45934L6.87173 0.373087C6.77597 0.146343 6.55809 0 6.31558 0C6.07307 0 5.8551 0.146343 5.75995 0.373087L4.46299 3.45934L1.18074 3.76217C0.940134 3.78474 0.736391 3.95039 0.661105 4.18392C0.586252 4.41789 0.65538 4.67452 0.837352 4.83673L3.31808 7.04766L2.58664 10.3221C2.53312 10.5628 2.62506 10.8118 2.8216 10.9562C2.92725 11.0342 3.05137 11.0732 3.17592 11.0732C3.28295 11.0732 3.39007 11.0442 3.48574 10.9861L6.31558 9.26626L9.1449 10.9861C9.35246 11.1121 9.61344 11.1006 9.80955 10.9562C10.0061 10.8118 10.098 10.5628 10.0445 10.3221L9.31308 7.04766L11.7938 4.83673C11.9757 4.67452 12.0449 4.41842 11.9701 4.18392Z" fill="#00D5FA"/>
</svg>
